<?xml version="1.0" encoding="utf-8"?>
<!-- Generator: Adobe Illustrator 19.2.1, SVG Export Plug-In . SVG Version: 6.00 Build 0)  -->
<svg version="1.1" id="Capa_1" xmlns="http://www.w3.org/2000/svg" xmlns:xlink="http://www.w3.org/1999/xlink" x="0px" y="0px"
	 viewBox="0 0 931.8 931.8" style="enable-background:new 0 0 931.8 931.8;" xml:space="preserve">
<g>
	<g>
		<path d="M413,356.4c20.6,0,0-30.3,0-30.3S392.5,356.4,413,356.4z"/>
		<path d="M419.5,415.9v-43.2h-12.9c0,0,0,0,0,0c0,11.3,0,42.4,0,54.2l10.2-8.7L419.5,415.9z"/>
		<path d="M399.7,364.8c0,3.2,2.6,5.7,5.7,5.7h1.3h12.8h1.2c3.2,0,5.7-2.6,5.7-5.7c0-3.2-2.6-5.7-5.7-5.7h-15.2
			C402.2,359.1,399.7,361.6,399.7,364.8z"/>
		<path d="M524.5,503.1c4.2,0,7.6-3.4,7.6-7.6c0-4.1-3.2-7.4-7.3-7.6l-9.7,15.2L524.5,503.1L524.5,503.1z"/>
		<path d="M487.9,473.1c0.5-0.8,1.1-1.5,1.8-2.2l-12.9-13c-0.1,2.5-0.2,4.9-0.3,7.2l2.5,21.8L487.9,473.1z"/>
		<path d="M521.9,473.4h-23.7c-1.6,0-3.1,0.6-4.3,1.7c-0.4,0.3-0.7,0.7-1,1.2l-12.8,20l0.2,1.7l1.5,13h17.3c2.4,0,4.7-1.2,6-3.3
			l3-4.6l9.7-15.2l6.5-10.2C525.4,475.9,524.1,473.4,521.9,473.4z"/>
		<path d="M476.5,517l-0.4-3l-0.4-3l-0.8-6.7l-0.5-4.7l-0.2-1.6l-0.4-3.1l-0.1-0.7c-0.1,0.4-0.1,0.7-0.2,1.1
			c-0.1,0.9-0.3,1.8-0.4,2.7c-0.3,1.6-0.5,3.2-0.8,4.7c-0.5,2.8-1,5.5-1.6,8c0,0.1,0,0.2-0.1,0.3c-0.2,1-0.4,2-0.7,3
			c-0.2,1-0.5,2-0.7,3c-13.2,52.1-40.2,59.4-51.4,60.1l-6.8,28.6h75.7L476.5,517z"/>
		<path d="M449.9,406.9c0.1-0.2,0.1-0.4,0-0.6l-3-12.4c-0.2-0.8-1.2-0.8-1.4,0l-3,12.4c0,0.1,0,0.3,0,0.4c1.1-0.2,2.2-0.3,3.4-0.3
			C447.3,406.5,448.6,406.6,449.9,406.9z"/>
		<path d="M428.3,400.7l4.6,10.4c1.8-1.5,3.9-2.7,6.2-3.4l-9.6-7.8C428.8,399.3,428,399.9,428.3,400.7z"/>
		<path d="M421.8,412.6l5.3,4.1l0.7,0.6c0-0.1,0.1-0.1,0.1-0.2c0.9-1.5,1.9-2.9,3.1-4.2l-8.7-1.5
			C421.5,411.2,421.1,412.1,421.8,412.6z"/>
		<path d="M470.1,411.3l-9.2,1.6c1.3,1.4,2.4,2.9,3.3,4.6l6.5-5C471.4,412.1,471,411.2,470.1,411.3z"/>
		<path d="M463,399.8l-9.8,7.9c2.3,0.9,4.4,2.1,6.2,3.7l4.8-10.8C464.5,399.9,463.7,399.3,463,399.8z"/>
		<path d="M418,496.4l7.3-8.5v-5v-11.5v-4.8v-3.8v-33.2c-1.6-2.4-3.2-4.9-4.6-6.9l-1.2,1l-11.6,9.9l-1.3,1.1
			C406.6,434.8,409.4,483.2,418,496.4z"/>
		<path d="M433.8,418.9c-0.2,0.2-0.3,0.5-0.5,0.7c-0.2,0.3-0.3,0.6-0.5,0.9c-0.3,0.6-0.6,1.2-0.8,1.8c-0.3,0.9-0.6,1.9-0.7,2.9
			c-0.1,0.4-0.1,0.8-0.1,1.3v4.7v49.7l29.3-34.4v-19.4c0-8.1-6.6-14.7-14.7-14.7C440.9,412.5,436.4,415,433.8,418.9z"/>
		<path d="M428.6,568.4c6.6-2.9,12.7-7.8,18-14.6c7-9.1,12.6-21.5,16.7-36.8c0.1-0.2,0.1-0.5,0.2-0.7c0.7-2.5,1.3-5.1,1.8-7.8
			c0.7-3.4,1.4-6.9,1.9-10.5c1.6-10,2.7-20.9,3.3-32.7c0.1-2.6,0.2-5.3,0.3-8c0-1.7,0.1-3.5,0.1-5.3c0-0.4,0-0.8,0-1.2h-0.3h-4h-1.7
			l-1.3,1.5l-3,3.5l-37.6,44l-2.3,2.7l-1.8,2.1v0.4v53.2v7.4v5.3c0.3,0,0.7-0.1,1-0.1C422.4,570.5,425.3,569.8,428.6,568.4z"/>
	</g>
</g>
</svg>
